<svg xmlns='http://www.w3.org/2000/svg' viewBox="0 0 423.821 217.44">
<polygon points="146,37 134,41 134,33" style="fill:rgb(0,0,0)"/>
<path d="M2,37L140,37"  style="fill:none;stroke-width:2.16;stroke:rgb(0,0,0);" />
<text x="74" y="25" text-anchor="middle" fill="rgb(0,0,0)" dominant-baseline="central">Markdown</text>
<text x="74" y="49" text-anchor="middle" fill="rgb(0,0,0)" dominant-baseline="central">Source</text>
<path d="M161,72L258,72A15 15 0 0 0 273 57L273,17A15 15 0 0 0 258 2L161,2A15 15 0 0 0 146 17L146,57A15 15 0 0 0 161 72Z"  style="fill:none;stroke-width:2.16;stroke:rgb(0,0,0);" />
<text x="209" y="17" text-anchor="middle" fill="rgb(0,0,0)" dominant-baseline="central">Markdown</text>
<text x="209" y="37" text-anchor="middle" fill="rgb(0,0,0)" dominant-baseline="central">Formatter</text>
<text x="209" y="57" text-anchor="middle" fill="rgb(0,0,0)" dominant-baseline="central">(markdown.c)</text>
<polygon points="417,37 405,41 405,33" style="fill:rgb(0,0,0)"/>
<path d="M273,37L411,37"  style="fill:none;stroke-width:2.16;stroke:rgb(0,0,0);" />
<text x="345" y="25" text-anchor="middle" fill="rgb(0,0,0)" dominant-baseline="central">HTML+SVG</text>
<text x="345" y="49" text-anchor="middle" fill="rgb(0,0,0)" dominant-baseline="central">Output</text>
<polygon points="209,72 214,84 205,84" style="fill:rgb(0,0,0)"/>
<polygon points="209,144 205,133 214,133" style="fill:rgb(0,0,0)"/>
<path d="M209,78L209,138"  style="fill:none;stroke-width:2.16;stroke:rgb(0,0,0);" />
<path d="M176,215L243,215A15 15 0 0 0 258 200L258,159A15 15 0 0 0 243 144L176,144A15 15 0 0 0 161 159L161,200A15 15 0 0 0 176 215Z"  style="fill:none;stroke-width:2.16;stroke:rgb(0,0,0);" />
<text x="209" y="159" text-anchor="middle" fill="rgb(0,0,0)" dominant-baseline="central">Pikchr</text>
<text x="209" y="180" text-anchor="middle" fill="rgb(0,0,0)" dominant-baseline="central">Formatter</text>
<text x="209" y="200" text-anchor="middle" fill="rgb(0,0,0)" dominant-baseline="central">(pikchr.c)</text>
</svg>
